<svg width="301" height="100" fill="none" xmlns="http://www.w3.org/2000/svg"><path d="M3.552 5.272 3.008.6H.64L3.04 23h3.776L9.216.6H6.848l-.544 4.64-1.376 14.976L3.552 5.272ZM11.06 23h2.432v-6.688L17.844 23h2.816l-4.64-7.104c2.752-1.312 4.672-4.032 4.672-7.232 0-4.448-3.68-8.064-8.16-8.064H11.06V23Zm7.2-14.336c0 2.848-2.048 5.28-4.768 5.76V2.968a5.777 5.777 0 0 1 4.768 5.696ZM34.557 21.144c-3.136 0-5.792-1.152-7.488-3.008L44.317 6.232C42.301 2.616 38.43.152 33.981.152c-6.496 0-11.776 5.216-11.776 11.648 0 6.432 4.992 11.648 12.352 11.648 3.968 0 7.296-1.632 9.6-4.96l-1.92-1.408c-1.856 2.816-4.512 4.064-7.68 4.064Zm-9.92-9.344a9.314 9.314 0 0 1 9.344-9.344 9.314 9.314 0 0 1 7.04 3.2L25.725 16.184a9.174 9.174 0 0 1-1.088-4.384ZM47.948.6 45.388 23h2.368l.256-2.368h3.584L51.884 23h2.368L51.692.6h-3.744Zm3.392 17.728H48.3l1.504-15.04 1.536 15.04ZM56.06 23h7.36v-2.304h-4.928V.6H56.06V23Zm4.928-4.608h2.432V.6h-2.432v17.792ZM65.2 2.904h3.585V23h2.432V2.904H74.8V.6h-9.6v2.304ZM78.607 23h2.432v-3.456L83.855.6h-2.368l-.48 2.88-1.216 11.04-1.312-11.04L77.967.6h-2.368l3.008 18.944V23ZM96.111 12.792v-2.368h-5.056v2.368h5.056ZM104.018 11.8c0 6.432 5.28 11.648 11.776 11.648 6.496 0 11.776-5.216 11.776-11.648 0-6.432-5.28-11.648-11.776-11.648-6.496 0-11.776 5.216-11.776 11.648Zm2.432 0a9.314 9.314 0 0 1 9.344-9.344 9.314 9.314 0 0 1 9.344 9.344 9.314 9.314 0 0 1-9.344 9.344 9.314 9.314 0 0 1-9.344-9.344ZM134.831.6h-3.744l-2.24 20.096h-1.408v4.224h2.432V23h6.176v1.92h2.432v-4.224h-1.408L134.831.6Zm-.416 17.76.256 2.336h-3.456l.288-2.368 1.44-14.912 1.472 14.944ZM149.411.6h-3.84l-.544 2.72-3.168 16.704.32-16.768V.6h-2.432V23h3.84l.608-3.008 3.104-16.544-.32 16.64V23h2.432v-6.496h3.52V23h2.432V.6h-2.432v13.6h-3.52V.6ZM167.528.6V23h3.872l.608-3.008L175.08 3.48l-.32 16.608V23h2.432V.6h-3.872l-.544 2.72-3.136 16.672.32-16.736V.6h-2.432ZM178.854 18.008c.832 3.168 3.68 5.44 7.104 5.44 4.032 0 7.296-3.232 7.296-7.264 0-2.464-1.44-5.056-4.128-6.176 1.568-.992 2.336-2.592 2.336-4.288 0-3.04-2.528-5.568-5.696-5.568-3.168 0-5.696 2.528-5.696 5.568l2.432.256V5.72c0-1.792 1.472-3.296 3.264-3.296 1.792 0 3.264 1.504 3.264 3.296 0 1.632-1.184 3.264-2.88 3.264h-1.504v2.304h1.312c2.784 0 4.864 2.176 4.864 4.928s-2.08 4.992-4.864 4.992c-2.368 0-4.224-1.6-4.736-3.776l-2.368.576ZM210.352 23h2.432V.6h-8.256V23h2.432V2.904h3.392V23ZM227.12 21.144c-3.136 0-5.792-1.152-7.488-3.008L236.88 6.232c-2.016-3.616-5.888-6.08-10.336-6.08-6.496 0-11.776 5.216-11.776 11.648 0 6.432 4.992 11.648 12.352 11.648 3.968 0 7.296-1.632 9.6-4.96l-1.92-1.408c-1.664 2.56-4.512 4.064-7.68 4.064ZM217.2 11.8a9.314 9.314 0 0 1 9.344-9.344 9.314 9.314 0 0 1 7.04 3.2l-15.296 10.528A9.174 9.174 0 0 1 217.2 11.8ZM238.591 23h2.432v-4.448c4.576-.48 8.128-4.32 8.128-8.96 0-4.96-4.064-8.992-9.088-8.992h-1.472V23Zm8.128-13.408c0 3.36-2.368 6.432-5.696 6.624V2.968c3.392.288 5.696 3.264 5.696 6.624ZM252.953 23c3.968 0 7.232-3.2 7.232-7.136 0-2.688-1.568-5.024-4-6.24.896-.864 1.344-2.08 1.344-3.424 0-2.816-2.336-5.6-5.632-5.6h-1.056V23h2.112Zm4.8-7.136c0 2.496-2.016 4.672-4.48 4.864v-9.696c2.464.192 4.48 2.368 4.48 4.832ZM255.097 6.2c0 1.312-.736 2.496-1.824 3.04V3.16a3.44 3.44 0 0 1 1.824 3.04ZM264.242.6h-2.432V23h1.696c5.024 0 9.088-4.032 9.088-8.992 0-4.704-3.68-8.576-8.352-8.96V.6ZM273.81 23h2.432V.6h-2.432V23Zm-3.648-8.992c0 3.456-2.496 6.528-5.92 6.656V7.352c3.584.352 5.92 3.232 5.92 6.656ZM277.725.6l9.728 11.2-9.728 11.2h3.168l2.56-2.944 5.6-6.624 5.6 6.624L297.245 23h3.168l-9.76-11.2 9.76-11.2h-3.2l-2.336 2.688-5.824 6.848-5.792-6.848L280.925.6h-3.2ZM1.216 61h2.432v-2.976l-.16-7.168L7.904 61h2.528L5.6 49.992 10.432 38.6H7.936l-4.48 10.592.192-7.904V38.6H1.216V61ZM17.44 38.6h-3.745L11.263 61h2.368l.544-4.672 1.376-14.816L16.96 56.36l.544 4.64h2.368L17.44 38.6ZM24.964 54.088 23.492 43.08l-.672-4.48h-2.368l2.688 18.368h1.376L24.004 61h2.368l2.88-22.4h-2.368l-.576 4.48-1.344 11.008ZM31.122 61h1.696c4.64 0 8.416-3.712 8.416-8.288 0-4.352-3.392-7.904-7.68-8.288v-3.52h4.992V38.6h-7.424V61Zm7.68-8.288c0 3.04-2.24 5.792-5.248 5.952V46.76c2.944.16 5.248 2.912 5.248 5.952ZM42.487 49.8c0 6.432 5.28 11.648 11.776 11.648 6.496 0 11.776-5.216 11.776-11.648 0-6.432-5.28-11.648-11.776-11.648-6.496 0-11.776 5.216-11.776 11.648Zm2.432 0a9.314 9.314 0 0 1 9.344-9.344 9.314 9.314 0 0 1 9.344 9.344 9.314 9.314 0 0 1-9.344 9.344 9.314 9.314 0 0 1-9.344-9.344ZM70.14 61c3.968 0 7.232-3.2 7.232-7.136 0-2.688-1.568-5.024-4-6.24.896-.864 1.344-2.08 1.344-3.424 0-2.816-2.336-5.6-5.632-5.6h-1.056V61h2.112Zm4.8-7.136c0 2.496-2.016 4.672-4.48 4.864v-9.696c2.464.192 4.48 2.368 4.48 4.832ZM72.284 44.2c0 1.312-.736 2.496-1.824 3.04v-6.08a3.44 3.44 0 0 1 1.824 3.04ZM90.828 61c3.968 0 7.232-3.2 7.232-7.136 0-2.688-1.568-5.024-4-6.24.896-.864 1.344-2.08 1.344-3.424 0-2.816-2.336-5.6-5.632-5.6h-1.056V61h2.112Zm4.8-7.136c0 2.496-2.016 4.672-4.48 4.864v-9.696c2.464.192 4.48 2.368 4.48 4.832ZM92.972 44.2c0 1.312-.736 2.496-1.824 3.04v-6.08a3.44 3.44 0 0 1 1.824 3.04ZM99.685 38.6V61h3.872l.608-3.008 3.072-16.512-.32 16.608V61h2.432V38.6h-3.872l-.544 2.72-3.136 16.672.32-16.736V38.6h-2.432ZM111.778 61h2.432v-4.448c4.576-.48 8.128-4.32 8.128-8.96 0-4.96-4.064-8.992-9.088-8.992h-1.472V61Zm8.128-13.408c0 3.36-2.368 6.432-5.696 6.624V40.968c3.392.288 5.696 3.264 5.696 6.624ZM122.17 40.904h3.584V61h2.432V40.904h3.584V38.6h-9.6v2.304ZM137.496 54.088l-1.472-11.008-.672-4.48h-2.368l2.688 18.368h1.376L136.536 61h2.368l2.88-22.4h-2.368l-.576 4.48-1.344 11.008ZM144.948 38.6l-2.56 22.4h2.368l.256-2.368h3.584l.288 2.368h2.368l-2.56-22.4h-3.744Zm1.856 2.688 1.536 15.04h-3.04l1.504-15.04ZM158.596 38.6h-3.744L152.42 61h2.368l.544-4.672 1.376-14.816 1.408 14.848.544 4.64h2.368l-2.432-22.4ZM165.242 38.6h-2.432V61h1.696c5.024 0 9.088-4.032 9.088-8.992 0-4.704-3.68-8.576-8.352-8.96V38.6Zm5.92 13.408c0 3.456-2.496 6.528-5.92 6.656V45.352c3.584.352 5.92 3.232 5.92 6.656ZM181.23 61h2.432V38.6h-2.432v13.6h-3.52V38.6h-2.432V61h2.432v-6.496h3.52V61ZM185.643 49.8c0 6.432 5.28 11.648 11.776 11.648 6.496 0 11.776-5.216 11.776-11.648 0-6.432-5.28-11.648-11.776-11.648-6.496 0-11.776 5.216-11.776 11.648Zm2.432 0a9.314 9.314 0 0 1 9.344-9.344 9.314 9.314 0 0 1 9.344 9.344 9.314 9.314 0 0 1-9.344 9.344 9.314 9.314 0 0 1-9.344-9.344ZM211.185 38.6V61h3.872l.608-3.008 3.072-16.512-.32 16.608V61h2.432V38.6h-3.872l-.544 2.72-3.136 16.672.32-16.736V38.6h-2.432Zm1.664-4.448v.192c0 1.632 1.44 2.88 3.136 2.88 1.728 0 3.168-1.248 3.168-2.88v-.192h-2.048v.128c0 .512-.512.96-1.12.96-.576 0-1.088-.448-1.088-.96v-.128h-2.048ZM1.216 99h2.432v-4.448c4.576-.48 8.128-4.32 8.128-8.96 0-4.96-4.064-8.992-9.088-8.992H1.216V99Zm8.128-13.408c0 3.36-2.368 6.432-5.696 6.624V78.968c3.392.288 5.696 3.264 5.696 6.624ZM25.37 97.144c-3.136 0-5.792-1.152-7.488-3.008L35.13 82.232c-2.016-3.616-5.888-6.08-10.336-6.08-6.496 0-11.776 5.216-11.776 11.648 0 6.432 4.992 11.648 12.352 11.648 3.968 0 7.296-1.632 9.6-4.96l-1.92-1.408c-1.664 2.56-4.512 4.064-7.68 4.064ZM15.45 87.8a9.314 9.314 0 0 1 9.344-9.344 9.314 9.314 0 0 1 7.04 3.2L16.538 92.184A9.174 9.174 0 0 1 15.45 87.8ZM38.76 76.6 36.2 99h2.369l.256-2.368h3.584L42.697 99h2.368l-2.56-22.4H38.76Zm1.857 2.688 1.536 15.04h-3.04l1.504-15.04ZM52.408 76.6h-3.744L46.232 99H48.6l.544-4.672 1.376-14.816 1.408 14.848.544 4.64h2.368l-2.432-22.4ZM59.054 76.6h-2.432V99h1.696c5.024 0 9.088-4.032 9.088-8.992 0-4.704-3.68-8.576-8.352-8.96V76.6Zm5.92 13.408c0 3.456-2.496 6.528-5.92 6.656V83.352c3.584.352 5.92 3.232 5.92 6.656ZM75.043 99h2.432V76.6h-2.432v13.6h-3.52V76.6H69.09V99h2.432v-6.496h3.52V99ZM91.391 87.8c0 3.36 1.504 6.464 3.808 8.576a8.713 8.713 0 0 1-3.84.864c-4.928 0-9.472-4.096-9.472-9.44 0-5.376 4.448-9.44 9.472-9.44 1.28 0 2.592.256 3.872.832-2.304 2.144-3.84 5.248-3.84 8.608Zm2.432 0c0-2.88 1.024-5.536 3.36-7.456 2.336 1.92 3.36 4.576 3.36 7.456 0 2.88-1.024 5.536-3.36 7.456-2.336-1.92-3.36-4.576-3.36-7.456Zm9.216 9.44a8.71 8.71 0 0 1-3.84-.864c2.304-2.112 3.808-5.216 3.808-8.576 0-3.36-1.536-6.464-3.84-8.608a9.382 9.382 0 0 1 3.872-.832c3.072 0 5.888 1.536 7.584 3.776l1.856-1.44c-2.176-2.752-5.536-4.544-9.312-4.544-2.176 0-4.224.608-5.984 1.632-1.76-1.024-3.776-1.632-5.952-1.632-6.496 0-11.776 5.216-11.776 11.648 0 6.432 5.28 11.648 11.776 11.648 2.176 0 4.192-.576 5.952-1.6a11.863 11.863 0 0 0 5.984 1.6c3.904 0 7.328-1.856 9.472-4.736l-1.92-1.408c-1.856 2.528-4.384 3.936-7.68 3.936ZM112.92 78.904h3.584V99h2.432V78.904h3.584V76.6h-9.6v2.304ZM124.31 76.6V99h3.872l.608-3.008 3.072-16.512-.32 16.608V99h2.432V76.6h-3.872l-.544 2.72-3.136 16.672.32-16.736V76.6h-2.432ZM148.234 99c3.968 0 7.232-3.2 7.232-7.136 0-2.688-1.568-5.024-4-6.24.896-.864 1.344-2.08 1.344-3.424 0-2.816-2.336-5.6-5.632-5.6h-1.056V99h2.112Zm4.8-7.136c0 2.496-2.016 4.672-4.48 4.864v-9.696c2.464.192 4.48 2.368 4.48 4.832Zm-2.656-9.664c0 1.312-.736 2.496-1.824 3.04v-6.08a3.44 3.44 0 0 1 1.824 3.04ZM175.578 99l2.016-19.84 1.024 16.896.224 2.944h2.368l-1.536-22.4h-4.192l-.544 4.64-1.248 14.752-1.248-14.752-.544-4.64h-4.192L166.17 99h2.368l.224-2.944 1.024-16.896L171.802 99h3.776ZM194.485 87.8c0 3.36 1.504 6.464 3.808 8.576a8.713 8.713 0 0 1-3.84.864c-4.928 0-9.472-4.096-9.472-9.44 0-5.376 4.448-9.44 9.472-9.44 1.28 0 2.592.256 3.872.832-2.304 2.144-3.84 5.248-3.84 8.608Zm2.432 0c0-2.88 1.024-5.536 3.36-7.456 2.336 1.92 3.36 4.576 3.36 7.456 0 2.88-1.024 5.536-3.36 7.456-2.336-1.92-3.36-4.576-3.36-7.456Zm9.216 9.44a8.713 8.713 0 0 1-3.84-.864c2.304-2.112 3.808-5.216 3.808-8.576 0-3.36-1.536-6.464-3.84-8.608a9.385 9.385 0 0 1 3.872-.832c3.072 0 5.888 1.536 7.584 3.776l1.856-1.44c-2.176-2.752-5.536-4.544-9.312-4.544-2.176 0-4.224.608-5.984 1.632-1.76-1.024-3.776-1.632-5.952-1.632-6.496 0-11.776 5.216-11.776 11.648 0 6.432 5.28 11.648 11.776 11.648 2.176 0 4.192-.576 5.952-1.6a11.864 11.864 0 0 0 5.984 1.6c3.904 0 7.328-1.856 9.472-4.736l-1.92-1.408c-1.856 2.528-4.384 3.936-7.68 3.936ZM217.435 99h2.432v-2.976l-.16-7.168L224.123 99h2.528l-4.832-11.008 4.832-11.392h-2.496l-4.48 10.592.192-7.904V76.6h-2.432V99ZM230.234 99c3.968 0 7.232-3.2 7.232-7.136 0-2.688-1.568-5.024-4-6.24.896-.864 1.344-2.08 1.344-3.424 0-2.816-2.336-5.6-5.632-5.6h-1.056V99h2.112Zm4.8-7.136c0 2.496-2.016 4.672-4.48 4.864v-9.696c2.464.192 4.48 2.368 4.48 4.832Zm-2.656-9.664c0 1.312-.736 2.496-1.824 3.04v-6.08a3.44 3.44 0 0 1 1.824 3.04ZM250.995 97.144c-3.136 0-5.792-1.152-7.488-3.008l17.248-11.904c-2.016-3.616-5.888-6.08-10.336-6.08-6.496 0-11.776 5.216-11.776 11.648 0 6.432 4.992 11.648 12.352 11.648 3.968 0 7.296-1.632 9.6-4.96l-1.92-1.408c-1.664 2.56-4.512 4.064-7.68 4.064Zm-9.92-9.344a9.314 9.314 0 0 1 9.344-9.344 9.314 9.314 0 0 1 7.04 3.2l-15.296 10.528a9.174 9.174 0 0 1-1.088-4.384ZM261.551 97.88a1.57 1.57 0 0 0 1.568 1.568c.928 0 1.632-.704 1.632-1.568 0-.928-.704-1.632-1.632-1.632-.864 0-1.568.704-1.568 1.632Z" fill="#fff"/></svg>